<mxfile host="app.diagrams.net" modified="2023-03-30T18:23:00.520Z" agent="Mozilla/5.0 (Windows NT 10.0; Win64; x64) AppleWebKit/537.36 (KHTML, like Gecko) Chrome/111.0.0.0 Safari/537.36" etag="kbaj5hUOtw3PT5P1299s" version="21.1.2" type="github">
  <diagram name="Page-1" id="1oOX-Mi_BNxDCuXzDFnU">
    <mxGraphModel dx="588" dy="324" grid="1" gridSize="1" guides="1" tooltips="1" connect="1" arrows="1" fold="1" page="1" pageScale="1" pageWidth="850" pageHeight="1100" background="#FFFFFF" math="0" shadow="0">
      <root>
        <mxCell id="0" />
        <mxCell id="1" parent="0" />
        <mxCell id="hmXFB_xDClmYl6STgoJQ-9" value="EventBridge" style="text;strokeColor=none;align=center;fillColor=none;html=1;verticalAlign=middle;whiteSpace=wrap;rounded=0;" vertex="1" parent="1">
          <mxGeometry x="179" y="10" width="40" height="30" as="geometry" />
        </mxCell>
        <mxCell id="hmXFB_xDClmYl6STgoJQ-22" style="edgeStyle=orthogonalEdgeStyle;rounded=0;orthogonalLoop=1;jettySize=auto;html=1;" edge="1" parent="1" source="hmXFB_xDClmYl6STgoJQ-2" target="hmXFB_xDClmYl6STgoJQ-14">
          <mxGeometry relative="1" as="geometry" />
        </mxCell>
        <mxCell id="hmXFB_xDClmYl6STgoJQ-2" value="" style="sketch=0;outlineConnect=0;fontColor=#232F3E;gradientColor=none;fillColor=#D45B07;strokeColor=none;dashed=0;verticalLabelPosition=bottom;verticalAlign=top;align=center;html=1;fontSize=12;fontStyle=0;aspect=fixed;pointerEvents=1;shape=mxgraph.aws4.lambda_function;" vertex="1" parent="1">
          <mxGeometry x="175" y="192" width="48" height="48" as="geometry" />
        </mxCell>
        <mxCell id="hmXFB_xDClmYl6STgoJQ-21" style="edgeStyle=orthogonalEdgeStyle;rounded=0;orthogonalLoop=1;jettySize=auto;html=1;" edge="1" parent="1" source="hmXFB_xDClmYl6STgoJQ-3">
          <mxGeometry relative="1" as="geometry">
            <mxPoint x="195.9999999999999" y="180" as="targetPoint" />
          </mxGeometry>
        </mxCell>
        <mxCell id="hmXFB_xDClmYl6STgoJQ-3" value="" style="sketch=0;points=[[0,0,0],[0.25,0,0],[0.5,0,0],[0.75,0,0],[1,0,0],[0,1,0],[0.25,1,0],[0.5,1,0],[0.75,1,0],[1,1,0],[0,0.25,0],[0,0.5,0],[0,0.75,0],[1,0.25,0],[1,0.5,0],[1,0.75,0]];outlineConnect=0;fontColor=#232F3E;gradientColor=#FF4F8B;gradientDirection=north;fillColor=#BC1356;strokeColor=#ffffff;dashed=0;verticalLabelPosition=bottom;verticalAlign=top;align=center;html=1;fontSize=12;fontStyle=0;aspect=fixed;shape=mxgraph.aws4.resourceIcon;resIcon=mxgraph.aws4.eventbridge;" vertex="1" parent="1">
          <mxGeometry x="171" y="30" width="50" height="50" as="geometry" />
        </mxCell>
        <mxCell id="hmXFB_xDClmYl6STgoJQ-23" style="edgeStyle=orthogonalEdgeStyle;rounded=0;orthogonalLoop=1;jettySize=auto;html=1;" edge="1" parent="1" source="hmXFB_xDClmYl6STgoJQ-7">
          <mxGeometry relative="1" as="geometry">
            <mxPoint x="347.95000000000005" y="180" as="targetPoint" />
          </mxGeometry>
        </mxCell>
        <mxCell id="hmXFB_xDClmYl6STgoJQ-7" value="" style="sketch=0;points=[[0,0,0],[0.25,0,0],[0.5,0,0],[0.75,0,0],[1,0,0],[0,1,0],[0.25,1,0],[0.5,1,0],[0.75,1,0],[1,1,0],[0,0.25,0],[0,0.5,0],[0,0.75,0],[1,0.25,0],[1,0.5,0],[1,0.75,0]];outlineConnect=0;fontColor=#232F3E;gradientColor=#4D72F3;gradientDirection=north;fillColor=#3334B9;strokeColor=#ffffff;dashed=0;verticalLabelPosition=bottom;verticalAlign=top;align=center;html=1;fontSize=12;fontStyle=0;aspect=fixed;shape=mxgraph.aws4.resourceIcon;resIcon=mxgraph.aws4.rds;" vertex="1" parent="1">
          <mxGeometry x="322.95" y="30" width="50" height="50" as="geometry" />
        </mxCell>
        <mxCell id="hmXFB_xDClmYl6STgoJQ-8" value="RDS" style="text;strokeColor=none;align=center;fillColor=none;html=1;verticalAlign=middle;whiteSpace=wrap;rounded=0;" vertex="1" parent="1">
          <mxGeometry x="322.95" y="10" width="50" height="30" as="geometry" />
        </mxCell>
        <mxCell id="hmXFB_xDClmYl6STgoJQ-10" value="Lambda" style="text;strokeColor=none;align=center;fillColor=none;html=1;verticalAlign=middle;whiteSpace=wrap;rounded=0;" vertex="1" parent="1">
          <mxGeometry x="170" y="240" width="60" height="30" as="geometry" />
        </mxCell>
        <mxCell id="hmXFB_xDClmYl6STgoJQ-13" value="" style="sketch=0;points=[[0,0,0],[0.25,0,0],[0.5,0,0],[0.75,0,0],[1,0,0],[0,1,0],[0.25,1,0],[0.5,1,0],[0.75,1,0],[1,1,0],[0,0.25,0],[0,0.5,0],[0,0.75,0],[1,0.25,0],[1,0.5,0],[1,0.75,0]];outlineConnect=0;fontColor=#232F3E;gradientColor=#F54749;gradientDirection=north;fillColor=#C7131F;strokeColor=#ffffff;dashed=0;verticalLabelPosition=bottom;verticalAlign=top;align=center;html=1;fontSize=12;fontStyle=0;aspect=fixed;shape=mxgraph.aws4.resourceIcon;resIcon=mxgraph.aws4.key_management_service;" vertex="1" parent="1">
          <mxGeometry x="500" y="30" width="50" height="50" as="geometry" />
        </mxCell>
        <mxCell id="hmXFB_xDClmYl6STgoJQ-18" style="edgeStyle=orthogonalEdgeStyle;rounded=0;orthogonalLoop=1;jettySize=auto;html=1;" edge="1" parent="1" source="hmXFB_xDClmYl6STgoJQ-14">
          <mxGeometry relative="1" as="geometry">
            <mxPoint x="680" y="215" as="targetPoint" />
          </mxGeometry>
        </mxCell>
        <mxCell id="hmXFB_xDClmYl6STgoJQ-14" value="" style="sketch=0;outlineConnect=0;fontColor=#232F3E;gradientColor=none;fillColor=#3F8624;strokeColor=none;dashed=0;verticalLabelPosition=bottom;verticalAlign=top;align=center;html=1;fontSize=12;fontStyle=0;aspect=fixed;pointerEvents=1;shape=mxgraph.aws4.snapshot;" vertex="1" parent="1">
          <mxGeometry x="333.05" y="190" width="35.9" height="50" as="geometry" />
        </mxCell>
        <mxCell id="hmXFB_xDClmYl6STgoJQ-16" value="Snapshot" style="text;strokeColor=none;align=center;fillColor=none;html=1;verticalAlign=middle;whiteSpace=wrap;rounded=0;" vertex="1" parent="1">
          <mxGeometry x="330" y="240" width="50" height="30" as="geometry" />
        </mxCell>
        <mxCell id="hmXFB_xDClmYl6STgoJQ-24" value="" style="endArrow=none;dashed=1;html=1;dashPattern=1 3;strokeWidth=2;rounded=0;entryX=0;entryY=1;entryDx=0;entryDy=0;entryPerimeter=0;" edge="1" parent="1" target="hmXFB_xDClmYl6STgoJQ-13">
          <mxGeometry width="50" height="50" relative="1" as="geometry">
            <mxPoint x="372.95" y="192" as="sourcePoint" />
            <mxPoint x="422.95" y="142" as="targetPoint" />
          </mxGeometry>
        </mxCell>
        <mxCell id="hmXFB_xDClmYl6STgoJQ-26" value="" style="endArrow=none;dashed=1;html=1;dashPattern=1 3;strokeWidth=2;rounded=0;exitX=1;exitY=1;exitDx=0;exitDy=0;exitPerimeter=0;" edge="1" parent="1" source="hmXFB_xDClmYl6STgoJQ-13">
          <mxGeometry width="50" height="50" relative="1" as="geometry">
            <mxPoint x="630" y="140" as="sourcePoint" />
            <mxPoint x="680" y="190" as="targetPoint" />
          </mxGeometry>
        </mxCell>
        <mxCell id="hmXFB_xDClmYl6STgoJQ-27" value="KMS" style="text;strokeColor=none;align=center;fillColor=none;html=1;verticalAlign=middle;whiteSpace=wrap;rounded=0;" vertex="1" parent="1">
          <mxGeometry x="495" y="80" width="60" height="30" as="geometry" />
        </mxCell>
        <mxCell id="hmXFB_xDClmYl6STgoJQ-28" value="" style="sketch=0;points=[[0,0,0],[0.25,0,0],[0.5,0,0],[0.75,0,0],[1,0,0],[0,1,0],[0.25,1,0],[0.5,1,0],[0.75,1,0],[1,1,0],[0,0.25,0],[0,0.5,0],[0,0.75,0],[1,0.25,0],[1,0.5,0],[1,0.75,0]];outlineConnect=0;fontColor=#232F3E;gradientColor=#60A337;gradientDirection=north;fillColor=#277116;strokeColor=#ffffff;dashed=0;verticalLabelPosition=bottom;verticalAlign=top;align=center;html=1;fontSize=12;fontStyle=0;aspect=fixed;shape=mxgraph.aws4.resourceIcon;resIcon=mxgraph.aws4.s3;" vertex="1" parent="1">
          <mxGeometry x="680" y="190" width="50" height="50" as="geometry" />
        </mxCell>
        <mxCell id="hmXFB_xDClmYl6STgoJQ-29" value="S3 Export" style="text;strokeColor=none;align=center;fillColor=none;html=1;verticalAlign=middle;whiteSpace=wrap;rounded=0;fontFamily=Garamond;" vertex="1" parent="1">
          <mxGeometry x="495" y="220" width="60" height="30" as="geometry" />
        </mxCell>
        <mxCell id="hmXFB_xDClmYl6STgoJQ-30" value="Snapshot Export" style="text;strokeColor=none;align=center;fillColor=none;html=1;verticalAlign=middle;whiteSpace=wrap;rounded=0;fontFamily=Garamond;" vertex="1" parent="1">
          <mxGeometry x="250" y="220" width="60" height="30" as="geometry" />
        </mxCell>
        <mxCell id="hmXFB_xDClmYl6STgoJQ-31" value="Snapshot" style="text;strokeColor=none;align=center;fillColor=none;html=1;verticalAlign=middle;whiteSpace=wrap;rounded=0;fontFamily=Garamond;" vertex="1" parent="1">
          <mxGeometry x="290" y="108" width="60" height="30" as="geometry" />
        </mxCell>
        <mxCell id="hmXFB_xDClmYl6STgoJQ-34" value="Trigger" style="text;strokeColor=none;align=center;fillColor=none;html=1;verticalAlign=middle;whiteSpace=wrap;rounded=0;fontFamily=Garamond;" vertex="1" parent="1">
          <mxGeometry x="140" y="110" width="60" height="30" as="geometry" />
        </mxCell>
        <mxCell id="hmXFB_xDClmYl6STgoJQ-35" value="S3 Bucket" style="text;strokeColor=none;align=center;fillColor=none;html=1;verticalAlign=middle;whiteSpace=wrap;rounded=0;" vertex="1" parent="1">
          <mxGeometry x="675" y="240" width="60" height="30" as="geometry" />
        </mxCell>
      </root>
    </mxGraphModel>
  </diagram>
</mxfile>
